<svg xmlns="http://www.w3.org/2000/svg" width="146" height="48" viewBox="0 0 1263 380"><path fill-rule="evenodd" clip-rule="evenodd" d="M93.6 306.3C105.2 306.3 114.6 315.6 114.6 327.2C114.6 338.7 105.2 348.1 93.6 348.1C82 348.1 72.6 338.8 72.6 327.2C72.7 315.7 82 306.3 93.6 306.3Z" fill="#291b2f"></path><path fill-rule="evenodd" clip-rule="evenodd" d="M239.9 306.3C251.5 306.3 260.9 315.6 260.9 327.2C260.9 338.7 251.5 348.1 239.9 348.1C228.3 348.1 218.9 338.8 218.9 327.2C219 315.7 228.3 306.3 239.9 306.3Z" fill="#291b2f"></path><path fill-rule="evenodd" clip-rule="evenodd" d="M161.7 347.5C161.7 347.5 148.8 366.7 153.9 374.6C159 382.5 176.1 378.2 176.1 378.2C176.1 378.2 159.8 374.2 157.9 368.4C155.9 362.5 161.7 347.5 161.7 347.5Z" fill="#291b2f"></path><path fill-rule="evenodd" clip-rule="evenodd" d="M313.5 295.7V315.5C307 319.2 303.1 319.1 302.1 326.1C299.9 341.1 295.5 357 286.9 361.9C278.1 366.9 255.4 368.8 234.4 367.6C215.1 366.4 197 362.4 191.6 355.4C189.2 352.2 186.7 347.6 184.7 342.3C182.8 337.4 181.3 332 180.5 326.6C177.7 307.8 155.8 307.8 153.1 326.6C152.3 332 150.8 337.5 148.9 342.3C146.9 347.6 144.4 352.2 142 355.4C136.6 362.4 118.4 366.4 99.2 367.6C78.3 368.9 55.6 366.9 46.7 361.9C38.1 357 33.7 341 31.5 326.1C30.5 319.1 26.6 319.2 20.1 315.5V295.7C25.5 294.3 30 293.2 35.3 291.4C43 288.8 62.3 283.3 91.3 283.1C109.3 283 130.7 285.8 147.8 293.7C158.7 298.7 175.1 298.7 186 293.7C203.1 285.9 224.5 283 242.5 283.1C271.5 283.3 290.9 288.7 298.5 291.4C303.6 293.2 308.1 294.4 313.5 295.7ZM204 295.5C188.5 299.6 185.5 302.3 186.4 312.9C187.1 321.5 188.8 331.8 191.9 339.8C193.7 344.4 195.7 348.4 197.7 350.9C201.6 356 217.6 359 234.9 360.1C254.6 361.3 275.6 359.7 283.1 355.4C289.6 351.7 293 338 294.8 324.7C297.5 304.2 296.4 298 284.1 295.4C274.5 293.3 260.4 291 242.2 290.8C226.2 290.7 213.4 292.9 204 295.5ZM129.5 295.5C120.1 293 107.2 290.8 91.2 290.9C73 291 59 293.4 49.3 295.5C37.1 298.1 35.9 304.3 38.6 324.8C40.4 338.1 43.8 351.8 50.3 355.5C57.9 359.8 78.8 361.4 98.5 360.2C115.9 359.1 131.8 356.1 135.7 351C137.7 348.4 139.8 344.5 141.5 339.9C144.5 332 146.3 321.6 147 313C148 302.3 145 299.6 129.5 295.5Z" fill="#291b2f"></path><path fill-rule="evenodd" clip-rule="evenodd" d="M30.1 308.6C34.9 287.2 41.7 269.9 41.8 234C100.5 210.7 153.4 214.7 209.5 238.6C209.5 238.6 206.2 227.6 196.6 218.9C186.9 210.3 182.8 207.1 182.8 207.1C202.6 207.5 261.9 211.9 294 239.6C286.4 278 306 282.2 308.4 309C308.4 309 334 263 333.9 202.3C333.8 141.6 314.8 117.9 301.3 100.2C287.8 82.5 284.7 49.8 284.7 49.8C284.7 49.8 272.5 56.3 267.5 62.5C262.5 68.7 255.5 80.5 255.5 80.5C255.5 80.5 255.3 59 259.3 47.3C263.3 35.6 269.8 22.5 269.8 22.5C269.8 22.5 241.6 30 224.9 39.5C208.2 49 199.6 56.9 199.6 56.9C199.6 56.9 203 33.9 207.2 24.5C211.3 15 219.1 0.600006 219.1 0.600006C219.1 0.600006 168.3 7.60001 124.4 42.6C80.5 77.6 58 119.2 58 119.2C58 119.2 61.9 96.5 67.5 86C73.1 75.5 76.3 71 76.3 71C76.3 71 18.4 84.3 4.10001 159.8C-5.29999 210.5 0.900011 278.1 30.1 308.6Z" fill="#291b2f"></path><path d="M563.6 292L563.42 216.4L526.34 278.68H513.2L476.3 218.02V292H448.94V166H473.06L520.22 244.3L566.66 166H590.6L590.96 292H563.6ZM645.694 207.94C649.054 203.26 653.554 199.72 659.194 197.32C664.954 194.92 671.554 193.72 678.994 193.72V219.64C675.874 219.4 673.774 219.28 672.694 219.28C664.654 219.28 658.354 221.56 653.794 226.12C649.234 230.56 646.954 237.28 646.954 246.28V292H618.874V195.16H645.694V207.94ZM705.256 293.44C700.336 293.44 696.196 291.76 692.836 288.4C689.476 285.04 687.796 280.84 687.796 275.8C687.796 270.64 689.476 266.5 692.836 263.38C696.196 260.14 700.336 258.52 705.256 258.52C710.176 258.52 714.316 260.14 717.676 263.38C721.036 266.5 722.716 270.64 722.716 275.8C722.716 280.84 721.036 285.04 717.676 288.4C714.316 291.76 710.176 293.44 705.256 293.44ZM776.665 293.08C767.425 293.08 758.545 291.58 750.025 288.58C741.625 285.58 735.265 281.74 730.945 277.06L737.425 266.62C741.625 271.18 747.445 274.84 754.885 277.6C762.325 280.36 770.005 281.74 777.925 281.74C789.085 281.74 798.025 279.58 804.745 275.26C811.585 270.82 815.005 264.7 815.005 256.9C815.005 252.7 813.745 249.28 811.225 246.64C808.705 244 805.525 241.9 801.685 240.34C797.845 238.66 792.625 236.86 786.025 234.94C778.225 232.66 771.865 230.5 766.945 228.46C762.145 226.3 758.005 223.18 754.525 219.1C751.165 214.9 749.485 209.5 749.485 202.9C749.485 195.1 751.585 188.38 755.785 182.74C760.105 176.98 766.045 172.6 773.605 169.6C781.285 166.48 790.045 164.92 799.885 164.92C807.445 164.92 814.645 165.88 821.485 167.8C828.325 169.6 834.145 172.24 838.945 175.72L833.365 186.52C828.805 183.16 823.585 180.64 817.705 178.96C811.825 177.16 805.645 176.26 799.165 176.26C788.125 176.26 779.245 178.54 772.525 183.1C765.805 187.66 762.445 193.84 762.445 201.64C762.445 205.96 763.765 209.5 766.405 212.26C769.045 215.02 772.285 217.24 776.125 218.92C780.085 220.48 785.365 222.22 791.965 224.14C799.765 226.42 806.065 228.64 810.865 230.8C815.665 232.84 819.745 235.84 823.105 239.8C826.465 243.64 828.145 248.74 828.145 255.1C828.145 263.02 825.925 269.86 821.485 275.62C817.165 281.26 811.105 285.58 803.305 288.58C795.625 291.58 786.745 293.08 776.665 293.08ZM902.707 236.38L936.727 292H921.787L892.627 244.12L866.167 264.64L860.767 292H847.987L874.627 158.44H887.407L869.407 248.26L934.567 197.32H952.747L902.707 236.38ZM971.473 197.32H984.253L965.533 292H952.753L971.473 197.32ZM983.353 176.62C980.833 176.62 978.733 175.78 977.053 174.1C975.493 172.42 974.713 170.44 974.713 168.16C974.713 165.4 975.613 163.12 977.413 161.32C979.333 159.4 981.733 158.44 984.613 158.44C987.133 158.44 989.233 159.28 990.913 160.96C992.593 162.52 993.433 164.38 993.433 166.54C993.433 169.42 992.473 171.82 990.553 173.74C988.633 175.66 986.233 176.62 983.353 176.62ZM1027.73 158.44H1040.51L1013.87 292H1001.09L1027.73 158.44ZM1076.07 158.44H1088.85L1062.21 292H1049.43L1076.07 158.44ZM1180.39 205.78L1106.59 281.38H1166.53L1164.37 292H1087.33L1088.95 283.54L1162.75 208.12H1105.33L1107.49 197.32H1182.19L1180.39 205.78Z" fill="#291b2f"></path></svg>